<mxfile host="app.diagrams.net" modified="2022-10-30T00:40:40.031Z" agent="5.0 (Windows NT 10.0; Win64; x64) AppleWebKit/537.36 (KHTML, like Gecko) Chrome/107.0.0.0 Safari/537.36" etag="aBRsEu_SaoQ-AP7DBA_B" version="20.3.2" type="github">
  <diagram id="cxQs9f1fSEMmoMtZKtai" name="Página-1">
    <mxGraphModel dx="1038" dy="571" grid="1" gridSize="10" guides="1" tooltips="1" connect="1" arrows="1" fold="1" page="1" pageScale="1" pageWidth="827" pageHeight="700" background="#E6E6E6" math="0" shadow="0">
      <root>
        <mxCell id="0" />
        <mxCell id="1" parent="0" />
        <mxCell id="kr8wLakOHSf0XLjnh72R-15" style="edgeStyle=orthogonalEdgeStyle;rounded=0;orthogonalLoop=1;jettySize=auto;html=1;entryX=0.5;entryY=0;entryDx=0;entryDy=0;" edge="1" parent="1" target="kr8wLakOHSf0XLjnh72R-13">
          <mxGeometry relative="1" as="geometry">
            <mxPoint x="154" y="300" as="sourcePoint" />
          </mxGeometry>
        </mxCell>
        <mxCell id="kr8wLakOHSf0XLjnh72R-39" style="edgeStyle=orthogonalEdgeStyle;rounded=0;orthogonalLoop=1;jettySize=auto;html=1;exitX=0.5;exitY=1;exitDx=0;exitDy=0;entryX=0.5;entryY=0;entryDx=0;entryDy=0;" edge="1" parent="1" source="kr8wLakOHSf0XLjnh72R-13" target="kr8wLakOHSf0XLjnh72R-27">
          <mxGeometry relative="1" as="geometry" />
        </mxCell>
        <mxCell id="kr8wLakOHSf0XLjnh72R-13" value="Compara horário e dia atual&lt;br&gt;com valores na memória." style="rounded=0;whiteSpace=wrap;html=1;fillColor=#dae8fc;strokeColor=#6c8ebf;" vertex="1" parent="1">
          <mxGeometry x="94" y="360" width="120" height="60" as="geometry" />
        </mxCell>
        <mxCell id="kr8wLakOHSf0XLjnh72R-25" style="edgeStyle=orthogonalEdgeStyle;rounded=0;orthogonalLoop=1;jettySize=auto;html=1;exitX=1;exitY=0.5;exitDx=0;exitDy=0;entryX=0;entryY=0.5;entryDx=0;entryDy=0;" edge="1" parent="1" source="kr8wLakOHSf0XLjnh72R-24" target="kr8wLakOHSf0XLjnh72R-49">
          <mxGeometry relative="1" as="geometry">
            <mxPoint x="644" y="515" as="targetPoint" />
          </mxGeometry>
        </mxCell>
        <mxCell id="kr8wLakOHSf0XLjnh72R-80" style="edgeStyle=orthogonalEdgeStyle;rounded=0;orthogonalLoop=1;jettySize=auto;html=1;exitX=0.25;exitY=1;exitDx=0;exitDy=0;entryX=0.577;entryY=0.017;entryDx=0;entryDy=0;entryPerimeter=0;" edge="1" parent="1" source="kr8wLakOHSf0XLjnh72R-24" target="kr8wLakOHSf0XLjnh72R-79">
          <mxGeometry relative="1" as="geometry" />
        </mxCell>
        <mxCell id="kr8wLakOHSf0XLjnh72R-24" value="Rotina alarme" style="shape=process;whiteSpace=wrap;html=1;backgroundOutline=1;fillColor=#fff2cc;strokeColor=#d6b656;" vertex="1" parent="1">
          <mxGeometry x="424" y="470" width="120" height="60" as="geometry" />
        </mxCell>
        <mxCell id="kr8wLakOHSf0XLjnh72R-29" style="edgeStyle=orthogonalEdgeStyle;rounded=0;orthogonalLoop=1;jettySize=auto;html=1;exitX=0.5;exitY=1;exitDx=0;exitDy=0;startArrow=none;entryX=0;entryY=0.5;entryDx=0;entryDy=0;" edge="1" parent="1" source="kr8wLakOHSf0XLjnh72R-27" target="kr8wLakOHSf0XLjnh72R-40">
          <mxGeometry relative="1" as="geometry">
            <mxPoint x="119" y="570" as="sourcePoint" />
            <mxPoint x="124" y="140" as="targetPoint" />
            <Array as="points">
              <mxPoint x="154" y="600" />
              <mxPoint x="44" y="600" />
              <mxPoint x="44" y="130" />
            </Array>
          </mxGeometry>
        </mxCell>
        <mxCell id="kr8wLakOHSf0XLjnh72R-71" style="edgeStyle=orthogonalEdgeStyle;rounded=0;orthogonalLoop=1;jettySize=auto;html=1;exitX=1;exitY=0.5;exitDx=0;exitDy=0;entryX=0;entryY=0.5;entryDx=0;entryDy=0;" edge="1" parent="1" source="kr8wLakOHSf0XLjnh72R-27" target="kr8wLakOHSf0XLjnh72R-54">
          <mxGeometry relative="1" as="geometry" />
        </mxCell>
        <mxCell id="kr8wLakOHSf0XLjnh72R-27" value="Igual?" style="rhombus;whiteSpace=wrap;html=1;fillColor=#d5e8d4;strokeColor=#82b366;" vertex="1" parent="1">
          <mxGeometry x="114" y="460" width="80" height="80" as="geometry" />
        </mxCell>
        <mxCell id="kr8wLakOHSf0XLjnh72R-31" value="Não" style="text;html=1;strokeColor=none;fillColor=none;align=center;verticalAlign=middle;whiteSpace=wrap;rounded=0;" vertex="1" parent="1">
          <mxGeometry x="104" y="550" width="60" height="30" as="geometry" />
        </mxCell>
        <mxCell id="kr8wLakOHSf0XLjnh72R-33" value="Sim" style="text;html=1;strokeColor=none;fillColor=none;align=center;verticalAlign=middle;whiteSpace=wrap;rounded=0;" vertex="1" parent="1">
          <mxGeometry x="719" y="210" width="60" height="30" as="geometry" />
        </mxCell>
        <mxCell id="kr8wLakOHSf0XLjnh72R-40" value="Rotina relógio" style="rounded=0;whiteSpace=wrap;html=1;strokeWidth=1;fillColor=#dae8fc;strokeColor=#6c8ebf;" vertex="1" parent="1">
          <mxGeometry x="94" y="100" width="120" height="60" as="geometry" />
        </mxCell>
        <mxCell id="kr8wLakOHSf0XLjnh72R-41" style="edgeStyle=orthogonalEdgeStyle;rounded=0;orthogonalLoop=1;jettySize=auto;html=1;entryX=0.5;entryY=0;entryDx=0;entryDy=0;" edge="1" parent="1" target="kr8wLakOHSf0XLjnh72R-44">
          <mxGeometry relative="1" as="geometry">
            <mxPoint x="154" y="160" as="sourcePoint" />
            <mxPoint x="154" y="120" as="targetPoint" />
          </mxGeometry>
        </mxCell>
        <mxCell id="kr8wLakOHSf0XLjnh72R-47" style="edgeStyle=orthogonalEdgeStyle;rounded=0;orthogonalLoop=1;jettySize=auto;html=1;exitX=1;exitY=0.5;exitDx=0;exitDy=0;entryX=1;entryY=0.5;entryDx=0;entryDy=0;" edge="1" parent="1" source="kr8wLakOHSf0XLjnh72R-44" target="kr8wLakOHSf0XLjnh72R-40">
          <mxGeometry relative="1" as="geometry">
            <Array as="points">
              <mxPoint x="264" y="260" />
              <mxPoint x="264" y="130" />
            </Array>
          </mxGeometry>
        </mxCell>
        <mxCell id="kr8wLakOHSf0XLjnh72R-44" value="Contou 1s" style="rhombus;whiteSpace=wrap;html=1;fillColor=#d5e8d4;strokeColor=#82b366;" vertex="1" parent="1">
          <mxGeometry x="114" y="220" width="80" height="80" as="geometry" />
        </mxCell>
        <mxCell id="kr8wLakOHSf0XLjnh72R-46" value="Sim" style="text;html=1;strokeColor=none;fillColor=none;align=center;verticalAlign=middle;whiteSpace=wrap;rounded=0;" vertex="1" parent="1">
          <mxGeometry x="719" y="440" width="60" height="30" as="geometry" />
        </mxCell>
        <mxCell id="kr8wLakOHSf0XLjnh72R-48" value="Não" style="text;html=1;strokeColor=none;fillColor=none;align=center;verticalAlign=middle;whiteSpace=wrap;rounded=0;" vertex="1" parent="1">
          <mxGeometry x="204" y="230" width="60" height="30" as="geometry" />
        </mxCell>
        <mxCell id="kr8wLakOHSf0XLjnh72R-64" style="edgeStyle=orthogonalEdgeStyle;rounded=0;orthogonalLoop=1;jettySize=auto;html=1;exitX=1;exitY=0.5;exitDx=0;exitDy=0;entryX=0.5;entryY=1;entryDx=0;entryDy=0;" edge="1" parent="1" source="kr8wLakOHSf0XLjnh72R-49" target="kr8wLakOHSf0XLjnh72R-50">
          <mxGeometry relative="1" as="geometry" />
        </mxCell>
        <mxCell id="kr8wLakOHSf0XLjnh72R-76" style="edgeStyle=orthogonalEdgeStyle;rounded=0;orthogonalLoop=1;jettySize=auto;html=1;entryX=0.5;entryY=1;entryDx=0;entryDy=0;exitX=0.5;exitY=1;exitDx=0;exitDy=0;" edge="1" parent="1" source="kr8wLakOHSf0XLjnh72R-49" target="kr8wLakOHSf0XLjnh72R-24">
          <mxGeometry relative="1" as="geometry">
            <Array as="points">
              <mxPoint x="649" y="600" />
              <mxPoint x="484" y="600" />
            </Array>
          </mxGeometry>
        </mxCell>
        <mxCell id="kr8wLakOHSf0XLjnh72R-49" value="Apertaram botão interface" style="rhombus;whiteSpace=wrap;html=1;fillColor=#d5e8d4;strokeColor=#82b366;" vertex="1" parent="1">
          <mxGeometry x="594" y="445" width="110" height="110" as="geometry" />
        </mxCell>
        <mxCell id="kr8wLakOHSf0XLjnh72R-65" style="edgeStyle=orthogonalEdgeStyle;rounded=0;orthogonalLoop=1;jettySize=auto;html=1;exitX=0.5;exitY=0;exitDx=0;exitDy=0;entryX=0.5;entryY=1;entryDx=0;entryDy=0;" edge="1" parent="1" source="kr8wLakOHSf0XLjnh72R-50" target="kr8wLakOHSf0XLjnh72R-82">
          <mxGeometry relative="1" as="geometry">
            <mxPoint x="724" y="160" as="targetPoint" />
          </mxGeometry>
        </mxCell>
        <mxCell id="kr8wLakOHSf0XLjnh72R-74" style="edgeStyle=orthogonalEdgeStyle;rounded=0;orthogonalLoop=1;jettySize=auto;html=1;exitX=0;exitY=0.5;exitDx=0;exitDy=0;entryX=0.5;entryY=0;entryDx=0;entryDy=0;" edge="1" parent="1" source="kr8wLakOHSf0XLjnh72R-50" target="kr8wLakOHSf0XLjnh72R-24">
          <mxGeometry relative="1" as="geometry" />
        </mxCell>
        <mxCell id="kr8wLakOHSf0XLjnh72R-50" value="Fecharam repositório" style="rhombus;whiteSpace=wrap;html=1;fillColor=#d5e8d4;strokeColor=#82b366;" vertex="1" parent="1">
          <mxGeometry x="669" y="275" width="110" height="110" as="geometry" />
        </mxCell>
        <mxCell id="kr8wLakOHSf0XLjnh72R-52" value="Não" style="text;html=1;strokeColor=none;fillColor=none;align=center;verticalAlign=middle;whiteSpace=wrap;rounded=0;" vertex="1" parent="1">
          <mxGeometry x="609" y="560" width="50" height="30" as="geometry" />
        </mxCell>
        <mxCell id="kr8wLakOHSf0XLjnh72R-53" value="Não" style="text;html=1;strokeColor=none;fillColor=none;align=center;verticalAlign=middle;whiteSpace=wrap;rounded=0;" vertex="1" parent="1">
          <mxGeometry x="609" y="300" width="60" height="30" as="geometry" />
        </mxCell>
        <mxCell id="kr8wLakOHSf0XLjnh72R-72" style="edgeStyle=orthogonalEdgeStyle;rounded=0;orthogonalLoop=1;jettySize=auto;html=1;exitX=1;exitY=0.5;exitDx=0;exitDy=0;entryX=0;entryY=0.5;entryDx=0;entryDy=0;" edge="1" parent="1" source="kr8wLakOHSf0XLjnh72R-54" target="kr8wLakOHSf0XLjnh72R-24">
          <mxGeometry relative="1" as="geometry" />
        </mxCell>
        <mxCell id="kr8wLakOHSf0XLjnh72R-78" style="edgeStyle=orthogonalEdgeStyle;rounded=0;orthogonalLoop=1;jettySize=auto;html=1;exitX=0.5;exitY=1;exitDx=0;exitDy=0;entryX=0.5;entryY=0;entryDx=0;entryDy=0;" edge="1" parent="1" source="kr8wLakOHSf0XLjnh72R-54" target="kr8wLakOHSf0XLjnh72R-77">
          <mxGeometry relative="1" as="geometry" />
        </mxCell>
        <mxCell id="kr8wLakOHSf0XLjnh72R-54" value="rotina repositório" style="shape=process;whiteSpace=wrap;html=1;backgroundOutline=1;fillColor=#fff2cc;strokeColor=#d6b656;" vertex="1" parent="1">
          <mxGeometry x="254" y="470" width="120" height="60" as="geometry" />
        </mxCell>
        <mxCell id="kr8wLakOHSf0XLjnh72R-68" style="edgeStyle=orthogonalEdgeStyle;rounded=0;orthogonalLoop=1;jettySize=auto;html=1;exitX=0.5;exitY=0;exitDx=0;exitDy=0;entryX=0.5;entryY=0;entryDx=0;entryDy=0;" edge="1" parent="1" source="kr8wLakOHSf0XLjnh72R-82" target="kr8wLakOHSf0XLjnh72R-40">
          <mxGeometry relative="1" as="geometry">
            <mxPoint x="724" y="100" as="sourcePoint" />
            <Array as="points">
              <mxPoint x="724" y="50" />
              <mxPoint x="154" y="50" />
            </Array>
          </mxGeometry>
        </mxCell>
        <mxCell id="kr8wLakOHSf0XLjnh72R-69" value="Sim" style="text;html=1;strokeColor=none;fillColor=none;align=center;verticalAlign=middle;whiteSpace=wrap;rounded=0;" vertex="1" parent="1">
          <mxGeometry x="144" y="310" width="60" height="30" as="geometry" />
        </mxCell>
        <mxCell id="kr8wLakOHSf0XLjnh72R-70" value="Sim" style="text;html=1;strokeColor=none;fillColor=none;align=center;verticalAlign=middle;whiteSpace=wrap;rounded=0;" vertex="1" parent="1">
          <mxGeometry x="194" y="470" width="60" height="30" as="geometry" />
        </mxCell>
        <mxCell id="kr8wLakOHSf0XLjnh72R-77" value="Abre Repositório" style="shape=parallelogram;perimeter=parallelogramPerimeter;whiteSpace=wrap;html=1;fixedSize=1;strokeWidth=1;fillColor=#f8cecc;strokeColor=#b85450;" vertex="1" parent="1">
          <mxGeometry x="184" y="600" width="120" height="60" as="geometry" />
        </mxCell>
        <mxCell id="kr8wLakOHSf0XLjnh72R-79" value="Toca Alarme" style="shape=parallelogram;perimeter=parallelogramPerimeter;whiteSpace=wrap;html=1;fixedSize=1;strokeWidth=1;fillColor=#f8cecc;strokeColor=#b85450;" vertex="1" parent="1">
          <mxGeometry x="344" y="600" width="120" height="60" as="geometry" />
        </mxCell>
        <mxCell id="kr8wLakOHSf0XLjnh72R-81" value="Para Alarme" style="shape=parallelogram;perimeter=parallelogramPerimeter;whiteSpace=wrap;html=1;fixedSize=1;strokeWidth=1;fillColor=#f8cecc;strokeColor=#b85450;" vertex="1" parent="1">
          <mxGeometry x="474" y="100" width="120" height="60" as="geometry" />
        </mxCell>
        <mxCell id="kr8wLakOHSf0XLjnh72R-84" style="edgeStyle=orthogonalEdgeStyle;rounded=0;orthogonalLoop=1;jettySize=auto;html=1;exitX=0;exitY=0.5;exitDx=0;exitDy=0;entryX=1;entryY=0.5;entryDx=0;entryDy=0;" edge="1" parent="1" source="kr8wLakOHSf0XLjnh72R-82" target="kr8wLakOHSf0XLjnh72R-81">
          <mxGeometry relative="1" as="geometry" />
        </mxCell>
        <mxCell id="kr8wLakOHSf0XLjnh72R-82" value="Rotina alarme" style="shape=process;whiteSpace=wrap;html=1;backgroundOutline=1;fillColor=#fff2cc;strokeColor=#d6b656;" vertex="1" parent="1">
          <mxGeometry x="664" y="100" width="120" height="60" as="geometry" />
        </mxCell>
      </root>
    </mxGraphModel>
  </diagram>
</mxfile>
